<?xml version="1.0" encoding="UTF-8" standalone="no"?>
<svg
   xmlns:dc="http://purl.org/dc/elements/1.1/"
   xmlns:cc="http://creativecommons.org/ns#"
   xmlns:rdf="http://www.w3.org/1999/02/22-rdf-syntax-ns#"
   xmlns:svg="http://www.w3.org/2000/svg"
   xmlns="http://www.w3.org/2000/svg"
   xmlns:sodipodi="http://sodipodi.sourceforge.net/DTD/sodipodi-0.dtd"
   xmlns:inkscape="http://www.inkscape.org/namespaces/inkscape"
   id="svg"
   width="99.683548"
   height="118.42281"
   viewBox="0 0 99.683548 118.42281"
   version="1.1"
   sodipodi:docname="Muse logo lyre-bulb.svg"
   inkscape:version="0.92.1 r15371"
   inkscape:export-filename="C:\Users\Eamonn\OneDrive\Documents\Family\Discovery\Muse logo navy with strapline.png"
   inkscape:export-xdpi="300"
   inkscape:export-ydpi="300">
  <metadata
     id="metadata11">
    <rdf:RDF>
      <cc:Work
         rdf:about="">
        <dc:format>image/svg+xml</dc:format>
        <dc:type
           rdf:resource="http://purl.org/dc/dcmitype/StillImage" />
        <dc:title />
      </cc:Work>
    </rdf:RDF>
  </metadata>
  <defs
     id="defs9" />
  <sodipodi:namedview
     pagecolor="#ffffff"
     bordercolor="#666666"
     borderopacity="1"
     objecttolerance="10"
     gridtolerance="10"
     guidetolerance="10"
     inkscape:pageopacity="0"
     inkscape:pageshadow="2"
     inkscape:window-width="1892"
     inkscape:window-height="988"
     id="namedview7"
     showgrid="false"
     inkscape:zoom="2.84"
     inkscape:cx="47.478738"
     inkscape:cy="47.762056"
     inkscape:window-x="36"
     inkscape:window-y="78"
     inkscape:window-maximized="0"
     inkscape:current-layer="layer1"
     inkscape:measure-start="153.995,155.8"
     inkscape:measure-end="157.979,155.925" />
  <g
     inkscape:groupmode="layer"
     id="layer1"
     inkscape:label="Layer 1"
     transform="translate(-120.11148,-15.856901)">
    <g
       transform="translate(1.4673486,1.5759932)"
       id="svgg"
       style="fill:#143d59;fill-opacity:1"
       inkscape:export-xdpi="300"
       inkscape:export-ydpi="300">
      <g
         aria-label="INSPIRATION  DELIVERED"
         transform="scale(1.0071697,0.99288139)"
         style="font-style:normal;font-variant:normal;font-weight:normal;font-stretch:normal;font-size:37.60099792px;line-height:1.25;font-family:Bahnschrift;-inkscape-font-specification:Bahnschrift;letter-spacing:0px;word-spacing:0px;fill:#143d59;fill-opacity:1;stroke:none;stroke-width:1.0071696"
         id="text4583" />
      <path
         inkscape:connector-curvature="0"
         style="display:inline;opacity:1;fill:#143d59;fill-opacity:1;stroke:none;stroke-width:0.99602234;stroke-linecap:butt;stroke-linejoin:miter;stroke-miterlimit:4;stroke-dasharray:none;stroke-opacity:1"
         d="m 161.63316,14.317993 c -2.57714,0.05648 -2.34477,3.567222 -0.0855,3.563995 4.41861,-0.0063 10.06026,-0.06429 14.13126,-0.04155 2.30814,0.01289 2.09831,-3.57302 -0.001,-3.559258 -3.61482,-0.0055 -11.2091,0.07465 -14.04471,0.03681 z m -22.64729,1.529327 c -1.64302,0.378756 -3.19517,1.498937 -4.23887,2.704537 -0.76291,0.881246 -1.45464,2.17537 -1.887,3.203259 -0.68149,1.620195 -0.8986,3.16285 -0.91792,4.699178 -0.0118,0.935687 0.0711,1.611445 0.40204,2.803998 0.82484,2.626003 3.20745,4.910576 5.73679,5.118738 2.07617,0.170866 4.05561,-0.809212 4.76783,-1.436991 1.20479,-1.166441 1.94235,-2.869294 1.9831,-4.417852 0.17544,-2.75084 -1.2642,-5.410326 -3.61618,-5.671939 -0.79231,-0.03734 -1.4189,0.25049 -2.01265,0.772057 -0.64822,0.591586 -1.0247,1.256936 -1.03855,2.219259 0.0238,0.473111 0.002,0.586556 0.15787,1.011549 0.0778,0.202556 0.0717,0.220436 0.35755,0.661257 0.30798,0.347939 0.50338,0.472439 0.87921,0.447531 0.11947,-0.02179 0.3808,-0.152238 0.49082,-0.311822 0.26481,-0.384115 0.28126,-1.371094 0.28126,-1.371094 0.33931,0.101331 0.65939,0.467035 0.77322,0.860035 0.11378,0.392996 -0.0598,1.130592 -0.49045,1.710058 -0.44905,0.520918 -1.39924,0.736743 -2.17109,0.253755 -0.62494,-0.486201 -0.83477,-0.847609 -0.98381,-1.144638 -0.18112,-0.442074 -0.35276,-0.898874 -0.45113,-1.639711 -0.0182,-1.18121 0.17035,-1.932189 0.70382,-2.941872 0.74355,-1.196423 2.28309,-2.032704 3.45352,-1.940462 1.09352,0.08618 1.78704,0.435845 2.33967,0.875018 0.78798,0.626204 1.4258,1.079128 2.05546,2.988408 0.52172,1.335133 0.47794,2.642827 0.42438,3.347785 -0.15361,1.733188 -2.13254,6.708211 -2.13254,6.708211 -9.18117,25.343418 -13.30897,33.196296 -20.53863,47.921428 -5.15407,10.70539 -5.0155,13.11792 -4.32033,21.5313 1.57697,8.74206 8.41381,15.55029 14.7212,19.02966 1.62365,0.76462 2.52166,1.4794 4.5913,1.58752 0.45656,0 1.87361,0.39146 0.35225,1.30857 -2.97676,3.64334 0.67606,5.51246 2.93878,5.85546 19.89445,0.11687 35.07558,0.20011 53.91211,-0.041 1.03964,-0.0133 2.92968,-1.16406 2.92968,-1.16406 2.0728,-1.45897 0.93235,-3.70273 -0.0742,-4.55272 -0.83507,-0.706 -0.73112,-1.04664 0.4375,-1.43164 3.28814,0.28357 16.60031,-7.2512 19.3125,-20.61718 0.8439,-11.37996 -0.86107,-13.22721 -4.32032,-21.48048 -5.50527,-10.00844 -6.58859,-14.00039 -12.71838,-26.936642 -4.26709,-10.832493 -5.17403,-13.060558 -9.33044,-25.049686 -2.3e-4,-5.5e-4 2.2e-4,-0.0014 0,-0.002 -0.33573,-0.821607 -0.55314,-1.721551 -0.62305,-2.662109 -0.26013,-3.499205 1.74392,-7.09006 4.77539,-7.240234 1.0616,-0.05259 2.11824,0.40169 2.92187,1.232422 0.80362,0.830729 1.3543,2.08745 1.28516,3.533203 -0.0418,0.873108 -0.3546,1.734088 -0.875,2.371093 -0.52043,0.637002 -1.24774,1.029075 -2.07567,0.69336 -0.49745,-0.201711 -0.86722,-0.619834 -1.06496,-1.171875 -0.0989,-0.27602 -0.17472,-0.624582 -0.0664,-1.017578 0.1083,-0.393 0.4311,-0.697498 0.7539,-0.798829 l 0.14499,0.997049 c 0.0651,0.261556 0.10168,0.295696 0.17166,0.402833 0.0791,0.09846 0.17403,0.186351 0.33369,0.246609 0.406,0.119227 0.68608,-0.01226 0.98243,-0.375 0.29635,-0.362748 0.51252,-0.962436 0.53515,-1.435547 0.046,-0.962323 -0.2988,-1.752164 -0.87109,-2.34375 -0.57228,-0.591589 -1.37317,-0.935779 -2.12695,-0.898438 -2.29683,0.113781 -3.86798,2.93077 -3.66407,5.673829 0.1492,2.007222 1.0494,3.848316 2.58008,4.857421 1.67935,1.107119 4.38133,1.402017 6.01348,0.50134 3.48929,-1.880565 4.73529,-5.381203 4.1643,-9.112669 -0.54918,-3.975783 -2.91894,-8.58591 -7.88672,-9.097656 -5.60929,-0.57783 -10.96049,0.650575 -13.91211,7.583984 -1.39886,-0.0196 -1.26157,0.02858 -15.06055,0.04687 l -14.31444,-0.07231 c -2.3868,-5.681587 -6.50317,-7.766882 -11.69817,-7.637602 0,0 -1.67014,-0.0918 -3.18229,0.256789 z m 19.83765,2.648402 c -2.86514,0.07765 -3.04408,4.076422 -0.15272,4.104148 2.71206,0.02904 12.59579,-0.09042 19.20417,-0.05824 3.42351,-0.08556 3.30915,-4.207362 0.009,-4.13787 z m 24.24592,10.595758 1.85157,7.515625 c 10.9558,38.166535 22.97234,57.993995 12.89453,71.533205 -4.70466,6.32053 -10.55508,8.56696 -16.12305,9.42772 -7.45635,1.15267 -17.91058,1.00189 -26.06009,-0.0182 -8.02908,-1.00505 -13.79107,-5.89579 -16.37546,-9.34808 -6.10853,-8.15993 -3.4348,-20.41925 0.17246,-31.83977 4.10855,-13.007552 8.94975,-26.488632 11.79815,-36.4509 1.30684,-4.484844 2.75624,-10.719154 2.81065,-10.794154 0.0544,-0.075 1.01809,-0.04554 3.87695,-0.01954 l 4.60742,0.04688 -7.7461,65.939454 1.8711,0.17578 c 2.04156,-18.13339 5.01987,-43.212772 7.46484,-66.115284 l 1.82813,0.02539 c -0.0897,2.165632 -1.38835,47.357144 -1.95312,65.874994 0,0 0.29127,0.19896 0.45943,0.23566 0.34048,0.0743 1.04447,-0.0462 1.04447,-0.0462 0.58523,-20.47966 0.78965,-44.878392 1.77149,-66.08203 l 2.58202,-0.02539 c 0.86902,15.146065 1.33908,54.17558 1.77149,66.08204 0,0 1.39839,0.40916 1.48828,-0.29883 -0.71345,-22.00653 -1.12842,-45.96143 -1.9375,-65.765627 0.71344,-0.03725 1.121,-0.09024 1.82813,-0.02539 2.27969,22.788585 5.32405,46.494827 7.46485,66.115237 l 1.8711,-0.17578 c -2.40706,-20.60182 -5.89943,-49.413205 -7.78127,-65.878916 z"
         id="path4551-0-7-4-5"
         sodipodi:nodetypes="cccccccsccccccccacccccccsscccccccccccccccccccscccccccccccccscaccsccccscccccccccccsscccccccccaccccccccccccccc" />
    </g>
    <g
       id="svgg-3"
       transform="matrix(-1.0181003,0,0,1,343.35589,1.8652582)"
       style="fill:none;fill-opacity:1;stroke:#f4b41a;stroke-opacity:1"
       inkscape:export-xdpi="300"
       inkscape:export-ydpi="300">
      <path
         style="fill:none;fill-opacity:1;stroke:#f4b41a;stroke-width:1.60000002;stroke-linecap:butt;stroke-linejoin:miter;stroke-miterlimit:4;stroke-dasharray:none;stroke-opacity:1"
         d="m 157.60741,94.944805 c -0.14766,1.549264 -0.32532,3.203461 -0.39728,4.735826 -0.18069,3.847889 0.0778,7.007019 2.94894,8.230629 1.83086,0.78026 4.81971,-1.32297 5.67781,-3.34507 1.20244,-2.83351 0.15637,-6.948015 -2.15668,-8.978872 -0.5211,-0.457522 -1.44302,-0.524224 -2.06867,-0.220072 -1.19374,0.580326 -1.78552,2.097566 -2.1606,3.389085 -0.49849,1.716449 -0.4086,3.639209 0.004,5.369719 0.47481,1.99187 2.32098,3.90219 4.31339,4.35739 1.62404,0.37104 3.4735,-0.55561 4.70949,-1.67253 0.91541,-0.82722 1.4211,-2.11839 1.58452,-3.34507 0.30512,-2.29032 -0.12278,-4.797382 -1.21753,-6.822185 -0.35908,-0.664135 -0.90138,-1.476973 -1.64339,-1.540493 -1.1857,-0.101502 -2.31625,0.994095 -2.99296,1.980634 -1.12159,1.635103 -1.42424,3.832564 -1.2764,5.809854 0.0949,1.2689 0.52613,2.60788 1.36443,3.56514 1.0121,1.15571 2.5134,2.16905 4.0493,2.20071 1.86304,0.0384 3.93006,-0.95163 5.0176,-2.46479 1.49435,-2.07917 1.76031,-5.16564 1.01233,-7.614435 -0.45238,-1.481027 -1.55154,-3.23445 -3.08099,-3.477113 -1.05867,-0.16797 -2.17614,0.738073 -2.77288,1.628521 -1.39419,2.080374 -1.91204,5.084767 -1.05635,7.438377 0.73479,2.02107 2.69219,3.87503 4.79754,4.31339 1.04468,0.21751 2.2587,-0.28229 3.03697,-1.01234 1.53599,-1.44081 2.20771,-3.75477 2.37676,-5.85386 0.2384,-2.96028 -1.47524,-6.883621 -3.56514,-6.382046 -4.40141,1.056338 -4.97075,13.882346 2.8427,13.104606 4.33562,-0.43156 5.75132,-12.459936 1.62187,-13.394473 -1.7439,-0.394663 -3.06331,2.439206 -3.3202,4.207121 -0.46558,3.204062 0.47764,7.492822 3.59844,9.021972 1.27865,0.62652 2.59989,-0.9462 3.10468,-1.93882 0.78383,-1.54132 1.00167,-3.03341 1.17354,-4.61173 0.2407,-2.210407 -0.21406,-6.668291 -0.21406,-6.668291"
         id="path4546"
         inkscape:connector-curvature="0"
         sodipodi:nodetypes="cssaaaasaaaaaaaaaaaaaaaassssassac" />
    </g>
  </g>
</svg>
